<?xml version="1.0" standalone="no"?><!DOCTYPE svg PUBLIC "-//W3C//DTD SVG 1.1//EN" "http://www.w3.org/Graphics/SVG/1.1/DTD/svg11.dtd"><svg class="icon" width="200px" height="200.00px" viewBox="0 0 1024 1024" version="1.1" xmlns="http://www.w3.org/2000/svg"><path fill="#333333" d="M901.87156 471.170078c0-15.175723-12.285109-26.738179-26.73818-26.73818H633.04446l-12.285109-158.261115c-1.445307-13.730416-13.007763-24.570219-26.73818-24.570218H429.256175c-13.730416 0-26.015526 10.839802-26.738179 24.570218L390.232886 444.431898H149.589273c-15.175723 0-26.738179 12.285109-26.738179 26.73818 0 156.093155 92.499647 291.229358 225.46789 353.377558l-41.191249 125.019054c-2.890614 7.949188-1.445307 17.343684 3.613267 23.847565 5.058574 7.226535 13.007763 10.839802 21.679605 10.839803h357.713479c8.671842 0 16.62103-4.335921 21.679605-10.839803 5.058574-7.226535 6.503881-15.898377 3.613267-23.847565l-40.468595-124.296401c133.690896-62.1482 226.913197-197.284404 226.913197-354.100211z m-448.045166-156.093155h114.901905l10.117149 129.354975H443.709245l10.117149-129.354975z m171.268878 529.705011l28.183486 86.718419H369.275935l28.183486-86.718419c5.781228 1.445307 10.839802 2.890614 16.621031 4.335921h1.445307c5.058574 1.445307 10.839802 2.890614 15.898376 3.613267 1.445307 0 2.16796 0.722653 3.613268 0.722654 5.781228 1.445307 10.839802 2.16796 16.62103 2.890614h1.445307c5.781228 0.722653 11.562456 1.445307 18.066338 2.16796 1.445307 0 2.890614 0 4.335921 0.722654 4.335921 0.722653 9.394495 0.722653 13.730416 0.722653h5.058574c5.781228 0 11.562456 0.722653 16.621031 0.722654h1.445307c5.781228 0 11.562456 0 17.343684-0.722654h5.058574c5.058574 0 9.394495-0.722653 14.45307-1.445307h3.613267c5.781228-0.722653 12.285109-1.445307 18.066338-2.16796h1.445307c5.781228-0.722653 11.562456-2.16796 16.62103-2.890614 0.722653 0 2.16796-0.722653 2.890614-0.722654 11.562456-2.16796 22.402258-5.058574 33.242061-7.949188z m-2.167961-56.366973s-0.722653 0-0.722653 0.722654l-13.007763 4.335921c-0.722653 0-1.445307 0.722653-2.167961 0.722653-4.335921 1.445307-8.671842 2.16796-13.007763 3.613268-0.722653 0-1.445307 0.722653-2.890613 0.722653-4.335921 0.722653-7.949188 2.16796-12.28511 2.890614-0.722653 0-2.16796 0.722653-2.890614 0.722654-3.613267 0.722653-7.949188 1.445307-11.562456 2.16796-1.445307 0-2.890614 0.722653-3.613267 0.722654-3.613267 0.722653-7.226535 0.722653-11.562456 1.445307-1.445307 0-2.890614 0.722653-4.335921 0.722653-3.613267 0-7.226535 0.722653-10.839802 0.722654h-36.855329c-2.16796 0-3.613267 0-5.781228-0.722654-3.613267 0-6.503881-0.722653-10.117148-0.722653-1.445307 0-3.613267-0.722653-5.058575-0.722654-3.613267-0.722653-7.226535-0.722653-10.839802-1.445307-1.445307 0-2.890614-0.722653-4.335921-0.722653-3.613267-0.722653-7.949188-1.445307-11.562456-2.167961-1.445307 0-2.16796-0.722653-3.613268-0.722653-4.335921-0.722653-7.949188-1.445307-11.562456-2.890614-0.722653 0-2.16796-0.722653-2.890614-0.722654-4.335921-0.722653-7.949188-2.16796-12.285109-3.613267-0.722653 0-1.445307-0.722653-2.16796-0.722654l-13.007763-4.335921c-0.722653 0-0.722653 0-1.445307-0.722653-122.851094-43.35921-213.182781-155.370501-224.022583-290.506705h669.899788c-12.285109 135.858857-102.616796 248.592802-225.46789 291.229358z m67.929429-395.291461c-10.839802 10.117149-11.562456 26.738179-1.445307 37.577982 5.058574 5.781228 12.285109 8.671842 19.511644 8.671842 6.503881 0 13.007763-2.16796 18.066337-7.226535s31.796754-31.0741 32.519407-63.593507c0.722653-15.898377-5.058574-30.351447-16.62103-42.636557-8.671842-9.394495-10.117149-19.511644-9.394495-26.738179 0.722653-9.394495 5.058574-17.343684 9.394495-20.234298 11.562456-8.671842 13.730416-26.015526 5.058575-37.577981s-26.015526-13.730416-37.577982-5.058575c-16.62103 13.007763-28.183486 34.687368-29.628793 58.534933-2.16796 25.292872 6.503881 49.140438 23.847565 67.929429 7.226535 7.949188-10.839802 27.460833-13.730416 30.351446z m-413.357799-8.671842c-10.839802 10.117149-11.562456 26.738179-1.445307 37.577982 5.058574 5.781228 12.285109 8.671842 19.511645 8.671842 6.503881 0 13.007763-2.16796 18.066337-7.226535s31.796754-31.0741 32.519407-63.593507c0.722653-15.898377-5.058574-30.351447-16.62103-42.636556-8.671842-9.394495-10.117149-19.511644-9.394495-26.73818 0.722653-9.394495 5.058574-17.343684 9.394495-20.234298 11.562456-8.671842 13.730416-26.015526 5.058574-37.577981s-26.015526-13.730416-37.577981-5.058575c-16.62103 13.007763-28.183486 34.687368-29.628793 58.534933-2.16796 25.292872 6.503881 49.140438 23.847565 67.929429 6.503881 7.949188-11.562456 27.460833-13.730417 30.351446z m204.510939-183.553987c-10.839802 10.117149-11.562456 26.738179-1.445307 37.577982 5.058574 5.781228 12.285109 8.671842 19.511644 8.671842 6.503881 0 13.007763-2.16796 18.066338-7.226535s31.796754-31.0741 32.519407-63.593508c0.722653-15.898377-5.058574-30.351447-16.62103-42.636556-8.671842-9.394495-10.117149-19.511644-9.394496-26.738179 0.722653-9.394495 5.058574-17.343684 9.394496-20.234298 11.562456-8.671842 13.730416-26.015526 5.058574-37.577981s-26.015526-13.730416-37.577982-5.058575c-16.62103 13.007763-28.183486 34.687368-29.628793 58.534933-2.16796 25.292872 6.503881 49.140438 23.847565 67.929428 7.226535 7.949188-10.839802 27.460833-13.730416 30.351447z" /></svg>